<svg xmlns="http://www.w3.org/2000/svg" viewBox="0 0 47.45 46.94"><defs><style>.cls-1{fill:#fff;}</style></defs><g id="Layer_2" data-name="Layer 2"><g id="Layer_1-2" data-name="Layer 1"><path class="cls-1" d="M23.48,0c5,0,10.08,0,15.12,0a8.88,8.88,0,0,1,7.47,4,7.51,7.51,0,0,1,1.38,4.33c0,1.22,0,2.44,0,3.67a1.37,1.37,0,0,1-1.35,1.51,1.39,1.39,0,0,1-1.35-1.52c0-1.07,0-2.15,0-3.22a6.05,6.05,0,0,0-5.42-6,8.92,8.92,0,0,0-1.16-.08q-14.7,0-29.41,0A5.58,5.58,0,0,0,3.28,6.06a5.88,5.88,0,0,0-.53,2.41c0,5.65,0,11.3,0,17a5.67,5.67,0,0,0,5.64,5.75c1.15,0,2.3,0,3.45,0a4,4,0,0,1,.49,0,1.34,1.34,0,0,1,1.25,1.33,1.26,1.26,0,0,1-1.21,1.34,23,23,0,0,1-6.09-.27A8.2,8.2,0,0,1,.05,25.84C0,19.91,0,14,.05,8.06A8.25,8.25,0,0,1,8.3,0C13.36,0,18.42,0,23.48,0Z"/><path class="cls-1" d="M27.41,35.78,21,31.94l-.47-.29A1.35,1.35,0,1,1,22,29.33c.68.38,1.34.8,2,1.2q2.84,1.7,5.66,3.42a.69.69,0,0,0,.84,0Q33.6,32,36.78,30.14a.74.74,0,0,0,.4-.8,4.91,4.91,0,0,1,4.73-5.19,4.94,4.94,0,1,1-3.53,8.18L35.53,34l-2.86,1.74,5.41,3.27c.34-.33.64-.66,1-.93a4.88,4.88,0,0,1,6.12,0,4.94,4.94,0,0,1-4.09,8.7,4.87,4.87,0,0,1-3.91-4.64.85.85,0,0,0-.47-.82c-2.11-1.24-4.2-2.51-6.28-3.78a.65.65,0,0,0-.79,0c-2.5,1.52-5,3-7.52,4.53a2.36,2.36,0,0,1-1.09.31,1.27,1.27,0,0,1-1.16-1A1.33,1.33,0,0,1,20.49,40c.8-.51,1.62-1,2.42-1.47Zm16.91-6.64a2.22,2.22,0,0,0-2.22-2.29,2.24,2.24,0,1,0,2.22,2.29Zm0,12.86a2.23,2.23,0,1,0-2.21,2.24A2.24,2.24,0,0,0,44.32,42Z"/><path class="cls-1" d="M17.63,16.94c0-1.83,0-3.66,0-5.5a2.58,2.58,0,0,1,4.31-2.16l5.12,3.9L29,14.63A2.76,2.76,0,0,1,29.08,19c-2.42,2-4.9,3.87-7.39,5.77a2.31,2.31,0,0,1-2.62.23,2.68,2.68,0,0,1-1.43-2.52C17.61,20.64,17.63,18.79,17.63,16.94Zm9.84-.08L20.4,11.53V22.37Z"/></g></g></svg>