<svg xmlns="http://www.w3.org/2000/svg" viewBox="0 0 2976.8 1861.52"><defs><style>.cls-1{fill:#fff;}</style></defs><g id="Layer_2" data-name="Layer 2"><g id="Layer_1-2" data-name="Layer 1"><path class="cls-1" d="M2976.8,1245.24c-9.66-.43-19.31-1.25-29-1.25q-463.92-.1-927.85,0H1988.9c-4.12,165.66,86.13,292.82,246.73,323.91,96.06,18.6,190.48,15.06,272.74-45,28.82-21,48.89-53.85,74.11-80.18,7.74-8.08,19.23-17.69,29.11-17.8,110.51-1.23,221-.75,331.57-.62,3.69,0,7.38,1.23,12.86,2.2-3.83,48.46-23,90.67-47.13,130.09-105.55,172.34-260.83,268-459.94,295.44-189.28,26.1-368.14.28-534.49-99.32-145-86.84-233.34-212.16-265.66-377.27-36.61-187.07-34.56-372.63,36.57-551.81,78.45-197.62,227.46-317.17,432.57-364.27,185-42.48,366.35-28.1,537.22,59.82,135.86,69.91,224.4,183.74,273.58,325.59,22.85,65.92,29.25,137.54,43.1,206.57,1.69,8.4,3.31,16.8,5,25.2Zm-981.36-235h608c-2-154-102.64-264.68-265.84-280.85C2148.77,710.73,2026.29,810.77,1995.44,1010.27Z"/><path class="cls-1" d="M1230.66,838.94c42.67,26.07,87.29,48.17,126,78,91.15,70.32,134.54,169,146.81,280.42,17.43,158.19-21.13,301.78-125.19,424.93-85.25,100.9-195.85,156.81-325,174.71-72.71,10.07-146.43,17.25-219.76,17.81-270.42,2.09-540.87.88-811.3.91H0V.16H30.11c281.1,0,562.2-.48,843.3.23C991.56.68,1107.53,15.05,1214.59,70c139.85,71.73,216.12,188.24,229.94,343.21,4.93,55.31,1.84,112.78-7.42,167.61-18.4,108.93-82.22,188-178.33,241.38-8.45,4.7-16.83,9.53-25.19,14.41A14.37,14.37,0,0,0,1230.66,838.94ZM365.86,1500c7.9.45,13.53,1,19.17,1,145.3,0,290.61,1.23,435.88-.89,45.08-.66,91.21-5.79,134.83-16.85,154.83-39.23,222.32-265.83,115.35-385.41-17.58-19.66-40.62-39.2-64.92-47-47.35-15.26-97.19-29.88-146.35-31.16-158.75-4.15-317.67-2.15-476.53-2.41-5.48,0-11,1.07-17.43,1.75Zm-.27-785.28c7.6.53,12.32,1.15,17.05,1.14,146.39,0,292.82,1.67,439.16-1.18,45.79-.89,92.27-10.55,136.75-22.48,46.94-12.59,86.24-39.25,105.82-87.54,18-44.44,21.25-90.78,13.81-137.17-11-68.71-50-114.48-119.46-129.95-33-7.34-66.53-16.1-100-16.79-159.88-3.29-319.81-4.06-479.72-5.53-4.44,0-8.9,2.07-13.44,3.2Z"/><path class="cls-1" d="M1902.73,308.63v-221h786.06v221Z"/></g></g></svg>