<svg xmlns="http://www.w3.org/2000/svg" viewBox="0 0 1857.46 1858.57"><defs><style>.cls-1{fill:#fff;}</style></defs><g id="Layer_2" data-name="Layer 2"><g id="Layer_1-2" data-name="Layer 1"><path class="cls-1" d="M1359.63,1858.57H496.72c-8.82-1.86-17.6-4-26.47-5.55C255,1814.13,108.76,1692,30.08,1488.27,14.31,1447.46,8.44,1404.36,0,1361.85V498.93c1.19-5.89,2.69-11.75,3.52-17.69,14.05-99.75,51.17-190,114.44-268.4C223.93,81.46,361.47,5.52,530.48,2.68,795.64-1.77,1061,.25,1326.17,2.12c106.6.76,204.84,35.22,291.37,97.28,159.33,114.27,239.93,270.31,239.92,467.08q0,364.34,0,728.66c0,33.28-1.12,66.4-7.28,99.23-37.93,202.1-152.12,343.11-340.19,424.92C1462,1840.18,1410.71,1849.13,1359.63,1858.57Zm307.72-927.43q0-181.27,0-362.55c0-23.55-.66-47-4.11-70.45-25-169.55-176-305.12-347-306.23-258.61-1.66-517.24-.41-775.86-.51-15.18,0-30.1,1.94-45,4.14-169.62,25-304.55,176.09-305.65,347.36-1.66,257.4-.49,514.82-.59,772.24,0,15.76,1.71,31.29,4,46.87C217.82,1532.7,368.64,1668,541,1669.09c258.61,1.68,517.24.48,775.86.35,36.62,0,72.16-7.41,106.42-19.74,148.8-53.59,242.72-185.23,243.88-343.32C1668.09,1181.31,1667.35,1056.22,1667.35,931.14Z"/><path class="cls-1" d="M1410.35,932.73c-5.87,274.21-221.66,480.41-483.67,478.89-275.6-1.59-482-221.86-479.82-483.69C449.18,649.64,672.67,446.21,931.48,449,1208.35,452.07,1408.81,673.69,1410.35,932.73ZM928,639c-161.16.44-292.57,132.27-291.18,292.12,1.4,161.77,129.07,289.43,290.73,290.72,160.15,1.28,291.52-129.68,292.09-291.17C1220.15,770.1,1088.62,638.56,928,639Z"/><path class="cls-1" d="M1409.54,338.2c64.68.07,117.16,52.69,116.19,116.46-1,64.5-53.75,116.21-117.72,115.36s-114.62-51.94-114.67-115.95C1293.28,389.12,1344.43,338.12,1409.54,338.2Z"/></g></g></svg>