<svg xmlns="http://www.w3.org/2000/svg" viewBox="0 0 1855.15 1855.15"><defs><style>.cls-1{fill:#fff;}</style></defs><g id="Layer_2" data-name="Layer 2"><g id="Layer_1-2" data-name="Layer 1"><path class="cls-1" d="M1855.15,239.32V1617.26c-2.15,10.47-4.27,21-6.44,31.43-26,125-126.06,206.35-254.59,206.39q-667.06.18-1334.13-.17a270.7,270.7,0,0,1-53.93-5C81.89,1824.37.11,1723.86.07,1596.94q-.18-658,.07-1316c0-18.06,1.09-36.18,2.87-54.16C13.76,118,92.41,30.61,199.38,8.07Q218.63,4,237.89,0H1615.82c5.1,1.52,10.1,3.9,15.3,4.43,104.34,10.72,193.56,90.48,215.44,192.92C1849.54,211.32,1852.29,225.33,1855.15,239.32ZM989.71,815.69c0-16,.25-30.26-.06-44.53C989.1,745.66,975,729,950,728.52c-56.77-1-113.59-.95-170.37-.06-24.87.4-39.11,16.22-39.12,40.48q-.15,350.76,0,701.51c0,25.09,14.23,39.29,39.25,39.39,56.19.24,112.4.7,168.57-.48,10.3-.22,24.07-5,29.77-12.61,7.25-9.62,10.86-24.19,10.94-36.67.77-119.63.09-239.27.67-358.91.22-45.67,12.22-88.39,40.48-125.15,29.75-38.72,71.37-48.1,116.77-42,44,5.94,72.39,32.45,87.89,74.05,14.28,38.32,14.11,78,14.06,117.84q-.18,166.77-.16,333.54c0,37.26,13.16,50.43,49.67,50.44q81.57,0,163.14,0c29.89-.06,43.21-13.2,43.21-42.91,0-135.35,1.49-270.73-1-406-.87-47.81-7.59-96.35-18.48-143-19.68-84.21-65.24-150.22-150-181.93-46.52-17.4-95.17-21.9-144.31-18.77-77.61,4.94-146.63,28.68-195.13,94.37C995,812.91,993.19,813.48,989.71,815.69ZM384.88,1120.5h.06q0,173,.1,346c0,28.65,15.17,43.25,43.86,43.34,51.33.16,102.66.07,154,0,36.58,0,51.31-14.67,51.32-51.59q.09-338.8,0-677.59c0-36.63-16.23-52.71-53.24-52.83q-70.65-.23-141.31,0c-40.69.05-54.75,13.85-54.77,53.81Q384.83,951.1,384.88,1120.5ZM509.25,346.66c-89.31-.05-159.37,70.37-160.58,159.15C347.66,579.67,405,666.1,510,666.92c87.31.69,159.44-72.67,160.24-159C671,419,598.84,346.71,509.25,346.66Z"/></g></g></svg>